<?xml version="1.0" encoding="UTF-8"?>
<svg enable-background="new 0 0 100 100" version="1.1" viewBox="0 0 100 100" xml:space="preserve" xmlns="http://www.w3.org/2000/svg"><path fill="#eceff1" d="m22.341 53.389c0.028-15.819 12.956-28.761 28.705-28.642 16.208 0.123 29.044 13.401 28.499 29.64-0.511 15.212-13.092 27.643-28.768 27.57-15.621-0.074-28.463-12.943-28.436-28.568zm42.846 3.881c-0.267 0.551-0.339 0.785-0.476 0.971-2.89 3.898-4.844 8.183-5.852 12.963-0.363 1.721-1.293 3.393-2.26 4.898-1.045 1.626-2.967 1.67-4.326 0.281-0.574-0.587-1.056-1.31-1.417-2.051-1.167-2.396-1.515-4.996-1.698-7.618-0.209-3-1.29-4.262-4.217-4.882-1.466-0.311-2.937-0.61-4.388-0.982-1.852-0.474-3.241-1.619-3.793-3.434-0.407-1.338-0.649-2.808-0.568-4.196 0.225-3.838 3.301-6.417 7.015-5.983 1.162 0.136 2.351 0.429 3.419 0.898 1.528 0.671 2.942 1.595 4.433 2.355 0.44 0.225 1.084 0.505 1.451 0.343 1.813-0.798 3.57-1.724 5.329-2.638 0.246-0.128 0.397-0.438 0.672-0.756-1.181-0.446-0.752-0.99-0.259-1.548 0.393-0.444 0.8-0.88 1.151-1.356 0.406-0.549 0.241-0.955-0.382-1.233-1.099-0.49-2.113-0.176-2.619 0.944-0.415 0.919-0.675 1.907-1.071 2.835-0.494 1.16-1.274 1.417-2.216 0.585-0.905-0.8-1.652-1.787-2.419-2.733-0.547-0.674-0.945-1.476-1.528-2.113-0.883-0.964-1.823-0.912-2.698 0.066-0.441 0.493-0.792 1.068-1.24 1.554-0.818 0.889-1.854 1.257-3.036 0.962-0.319-0.079-0.567-0.442-0.848-0.675 0.272-0.227 0.514-0.517 0.823-0.665 0.413-0.198 0.88-0.286 1.467-0.466-0.38-0.452-0.685-0.71-0.846-1.039-0.133-0.272-0.244-0.723-0.11-0.93 1.195-1.852 5.093-3.482 6.988-1.847 1.536 1.325 2.804 0.797 3.448-1.058 0.314-0.903 0.067-1.319-0.887-1.441-0.483-0.062-0.99-9e-3 -1.453-0.131-0.293-0.077-0.643-0.335-0.745-0.598-0.065-0.168 0.218-0.59 0.447-0.731 0.74-0.454 1.491-0.939 2.305-1.216 2.441-0.831 4.91-1.581 7.376-2.336 0.645-0.198 1.137-0.423 1.208-1.221 0.071-0.802-0.423-0.996-1.003-1.211-8.71-3.224-16.863-2.164-24.462 3.168-0.328 0.23-0.623 0.507-1.078 0.88 0.41 0.025 0.617 4e-3 0.805 0.056 0.484 0.134 0.959 0.3 1.438 0.453-0.178 0.465-0.237 1.046-0.555 1.375-1.962 2.028-3.94 4.045-6.01 5.96-0.573 0.53-1.48 0.696-2.228 1.044-0.169 0.079-0.385 0.184-0.453 0.334-1.27 2.816-1.977 5.766-2.139 8.996 0.312-0.214 0.502-0.353 0.701-0.48 0.699-0.447 1.463-1.152 2.262-0.506 0.78 0.631 0.652 1.634 0.362 2.537-0.106 0.329-0.225 0.679-0.434 0.944-0.623 0.793-1.249 1.594-1.963 2.303-0.447 0.444-0.6 0.823-0.477 1.459 2.602 13.485 16.087 22.623 29.533 19.852 9.838-2.028 16.292-7.98 19.53-17.467 0.205-0.601 0.101-0.99-0.271-1.504-0.545-0.753-1.075-1.594-1.309-2.477-0.32-1.208-1.027-1.645-2.162-1.71-2.996-0.172-5.99-0.404-8.989-0.516-0.693-0.026-1.457 0.215-2.085 0.536-0.814 0.416-1.198 1.223-0.91 2.131 0.294 0.927 1.106 0.799 1.851 0.682 1.194-0.188 2.386-0.38 3.866-0.617z"/><path fill="#eceff1" d="m74.257 33.764c1.562-1.475 3.13-2.957 4.753-4.491-1.006-0.883-1.943-1.751-2.94-2.542-0.188-0.149-0.663-0.094-0.923 0.035-0.559 0.276-1.065 0.66-1.658 1.043-0.333-0.252-0.687-0.52-1.169-0.885 1.774-1.423 3.48-2.825 3.853-5.219 1.08 0.367 1.427 0.843 1.015 1.893-0.569 1.45-0.494 1.478 0.812 2.291 0.77 0.479 1.535 0.966 2.42 1.525 0.995-1.953 1.986-3.897 3.036-5.959 0.446 0.27 0.848 0.513 1.338 0.81-0.596 2.044-1.163 4.08-1.794 6.096-0.197 0.629-0.083 0.966 0.44 1.398 1.201 0.99 2.324 2.08 3.434 3.174 0.208 0.205 0.212 0.617 0.31 0.934-0.353 0.017-0.782 0.174-1.045 0.028-1.392-0.771-2.77-1.576-4.093-2.459-0.491-0.328-0.801-0.361-1.283-0.039-1.45 0.97-2.932 1.893-4.402 2.832-1.166 0.746-1.167 0.745-2.104-0.465z"/><path fill="#eceff1" d="m54.096 15.598v2.95h-6.273v-2.95h6.273z"/><path fill="#eceff1" d="m16.999 49.905c-1.037-0.266-1.966-0.504-2.959-0.759 0.524-2.102 1.025-4.115 1.542-6.188 1.001 0.252 1.901 0.479 2.962 0.747-0.515 2.07-1.021 4.1-1.545 6.2z"/><path fill="#eceff1" d="m57.187 18.595c0.263-1.044 0.49-1.948 0.747-2.971 2.067 0.511 4.074 1.008 6.18 1.529-0.245 1.013-0.463 1.915-0.717 2.968-2.063-0.507-4.071-1-6.21-1.526z"/><path fill="#eceff1" d="m44.883 19.393c-2.115 0.606-4.085 1.17-6.161 1.765-0.28-0.982-0.543-1.905-0.835-2.928 2.039-0.595 4.003-1.168 6.095-1.779 0.296 0.966 0.576 1.88 0.901 2.942z"/><path fill="#eceff1" d="m19.372 40.802c-0.917-0.508-1.727-0.958-2.675-1.484 1.042-1.884 2.054-3.716 3.1-5.608 0.931 0.528 1.769 1.004 2.667 1.513-1.028 1.856-2.017 3.641-3.092 5.579z"/><path fill="#eceff1" d="m19.581 68.365c-1.016 0.293-1.912 0.552-2.939 0.849-0.588-2.032-1.163-4.02-1.768-6.113 0.989-0.3 1.906-0.578 2.924-0.886 0.592 2.042 1.17 4.034 1.783 6.15z"/><path fill="#eceff1" d="m66.288 20.96c0.507-0.918 0.97-1.755 1.482-2.683 1.897 1.051 3.707 2.053 5.589 3.095-0.519 0.931-0.986 1.769-1.486 2.668-1.884-1.038-3.7-2.04-5.585-3.08z"/><path fill="#eceff1" d="m29.029 23.314c1.867-1.127 3.62-2.185 5.48-3.308 0.516 0.855 1.009 1.674 1.579 2.62-1.804 1.085-3.576 2.152-5.463 3.288-0.525-0.855-1.024-1.669-1.596-2.6z"/><path fill="#eceff1" d="m24.487 80.661c0.534-0.559 1.183-1.238 2.014-2.109 1.404 1.638 2.777 3.239 4.205 4.905-0.407 0.391-1.107 1.063-1.904 1.828-1.432-1.534-2.856-3.06-4.315-4.624z"/><path fill="#eceff1" d="m21.718 78.054c-1.107-1.839-2.178-3.619-3.294-5.473 0.905-0.542 1.732-1.037 2.622-1.571 1.101 1.825 2.16 3.581 3.307 5.481-0.861 0.51-1.706 1.012-2.635 1.563z"/><path fill="#eceff1" d="m13.987 59.233v-6.2h2.956v6.2h-2.956z"/><path fill="#eceff1" d="m23.662 32.347c-0.387-0.475-1.001-1.227-1.719-2.109 1.408-1.243 2.968-2.62 4.588-4.051 0.426 0.473 1.07 1.188 1.799 1.998-1.464 1.305-3.014 2.687-4.668 4.162z"/></svg>
